<mxfile host="app.diagrams.net" modified="2024-09-23T08:06:55.797Z" agent="Mozilla/5.0 (Windows NT 10.0; Win64; x64) AppleWebKit/537.36 (KHTML, like Gecko) Chrome/128.0.0.0 Safari/537.36" version="24.0.2" etag="N1tGPtSOUEmwFWUbyacx" type="github">
  <diagram name="Page-1" id="9qSY4dkZg2EPxvWDV6Ty">
    <mxGraphModel>
      <root>
        <mxCell id="0" />
        <mxCell id="1" parent="0" />
      </root>
    </mxGraphModel>
  </diagram>
</mxfile>
